<svg class="css-1j8o68f" viewBox="0 0 200 236.49" xmlns="http://www.w3.org/2000/svg"><defs><linearGradient id="a"><stop stop-color="#fbb040" offset="0"/><stop stop-color="#f9ed32" offset="1"/></linearGradient></defs><rect width="110" height="81" rx="10" ry="10" xmlns="http://www.w3.org/2000/svg" transform="translate(45 20)" fill="url(#a)"/><path d="M134.3 77.148c-4.589-1.944-16.41-.156-24.186 1.01-2.722.39-5.21.778-5.91.778-2.645-.155-6.455-1.166-7.933-1.71-.778-.311-4.2-1.867-6.455-2.956h-.155c-1.322-.622-2.333-1.088-2.722-1.244-.544-.233-3.733-2.488-6.533-4.51 0 0-.077 0-.077-.078l-12.21-7.544c1.322-1.01 3.5-2.255 5.522-1.555 1.477.544 4.51 1.944 4.977 2.1l11.432 6.688c.7 1.866 1.555 3.577 2.41 4.355 1.4 1.166 4.2 2.644 4.278 2.722.155.077.389.155.544.155.389 0 .856-.233 1.011-.622.311-.544.078-1.244-.467-1.555 0 0-2.644-1.478-3.888-2.489-.622-.467-1.244-1.866-1.789-3.577 0-.078 0-.156-.077-.156-.934-2.644-1.633-5.91-1.633-6.999s2.877-7.932 4.199-9.488c.622-.466 4.277-.466 8.01 0 0 .311-.078.778-.311 1.167-.622 1.01-2.1 1.633-4.277 1.944-.389.078-.7.233-.856.544-2.333 3.889 0 9.8.078 10.033s.311.466.544.622l4.9 2.566c.233.156.544.156.855.078l5.522-1.556c.233-.077.389-.233.544-.388l5.444-6.61c.311-.39.389-.934.078-1.4-.156-.234-3.5-5.366-7.544-9.022-1.788-1.633-4.2-1.71-6.377-1.866-3.11-.156-4.9-.389-5.443-3.033 1.633-.389 6.143-.933 9.954-1.244.078 0 4.277-.467 9.72 4.9 5.833 5.754 14.855 10.887 17.81 12.442.544.311 1.244.078 1.555-.544s.078-1.245-.544-1.556c-2.878-1.477-11.588-6.454-17.187-11.976-6.3-6.221-11.432-5.6-11.587-5.522-10.966.934-11.588 1.711-11.899 2.1a1.494 1.494 0 00-.311.933c.311 2.489 1.322 3.967 2.566 4.744-1.788.156-2.566.622-2.955 1.089-1.4 1.71-4.822 9.177-4.822 11.043 0 .778.312 2.722.934 4.977l-9.332-5.444s-.078 0-.078-.077c-.156-.078-3.5-1.633-5.133-2.256-4.588-1.71-8.943 2.878-9.177 3.111s-.31.545-.31.933.233.623.544.856l7.154 4.433h-.622c-5.055-.234-6.843 3.966-7.077 6.221-.077.622.39 1.244 1.011 1.322l9.877 1.089c-1.4 1.633-1.633 3.888-1.555 5.133.077.622.544 1.088 1.166 1.088h.078l15.942-.855s3.81-.233 5.91-.389c1.867.544 4.511 1.089 6.61 1.244h.156c.934 0 2.878-.31 6.222-.777 7.077-1.09 18.975-2.878 22.941-1.245.623.234 1.245 0 1.556-.622.233-.622-.078-1.322-.622-1.555zm-29.941-24.342c.778-1.244.7-2.566.622-3.266.389.156.778.389 1.089.7 2.955 2.722 5.6 6.3 6.688 7.855l-4.666 5.677-4.666 1.322-4.044-2.178c-.545-1.555-1.322-4.821-.311-7.077 2.566-.466 4.355-1.477 5.288-3.033zM72.008 68.75c1.088.078 3.266.155 4.821.233l2.333 1.4c.856.622 2.878 2.1 4.51 3.266-.855-.078-1.4-.155-1.4-.155l-14.697-1.711c.466-1.322 1.633-3.189 4.433-3.033zm19.442 9.41l-14.62.777c.155-1.166.777-2.8 2.565-3.421l2.567.31c.233 0 5.444.545 6.921.7 1.322.623 2.489 1.167 3.578 1.634H91.45z" xmlns="http://www.w3.org/2000/svg" fill="#303841"/><path d="M18.839 144.098h-7.003l-5.933-9.76v9.76H0v-22.774h8.722c5.453 0 7.622 3.13 7.622 7.034 0 3.207-1.89 5.081-4.616 5.67zM10.72 128.42c0-1.395-.79-2.278-2.975-2.278H5.903v4.57h1.843c2.185 0 2.975-.898 2.975-2.292zm20.187 15.988c-6.879 0-11.82-4.663-11.82-11.696 0-7.08 4.942-11.713 11.82-11.713 6.894 0 11.836 4.632 11.836 11.713 0 7.033-4.942 11.696-11.836 11.696zm0-5.36c3.44 0 6.01-2.432 6.01-6.336s-2.57-6.352-6.01-6.352c-3.424 0-5.965 2.447-5.965 6.352s2.541 6.336 5.965 6.336zm24.928 5.36c-6.879 0-11.82-4.632-11.82-11.696 0-7.08 4.942-11.713 11.82-11.713 5.438 0 9.682 2.85 11.2 7.483l-5.515 1.936c-.759-2.54-2.943-4.058-5.685-4.058-3.424 0-5.965 2.447-5.965 6.351s2.54 6.337 5.965 6.337c2.742 0 4.926-1.519 5.685-4.06l5.516 1.937c-1.519 4.632-5.764 7.483-11.201 7.483zm27.345-.31l-6.43-9.14h-1.41v9.14H69.44v-22.773h5.902v8.52h1.364l6.661-8.52h7.173l-8.722 10.906 8.877 11.867H83.18zm26.928-22.773c4.663 0 7.514 3.423 7.514 7.606 0 4.292-2.851 7.452-7.514 7.452h-4.121v7.715h-5.903v-22.773h10.024zm-1.023 10.178c2.107 0 2.928-.991 2.928-2.665 0-1.58-.82-2.633-2.928-2.633h-3.098v5.298h3.098zm26.648 12.595l-1.472-4.214h-9.109l-1.456 4.214H117.7l8.381-22.773h7.266l8.381 22.773h-5.995zm-8.893-9.078h5.733l-2.867-8.242zm26.834-13.695c4.663 0 7.513 3.423 7.513 7.606 0 4.292-2.85 7.452-7.513 7.452h-4.121v7.715h-5.903v-22.773h10.024zm-1.023 10.178c2.107 0 2.928-.991 2.928-2.665 0-1.58-.82-2.633-2.928-2.633h-3.098v5.298h3.098zm24.835-5.05h-7.932v3.718h7.065v5.081h-7.065v3.672h7.932v5.174h-13.834v-22.773h13.834v5.128zm22.511 17.645h-7.002l-5.934-9.76v9.76h-5.902v-22.773h8.722c5.453 0 7.622 3.13 7.622 7.033 0 3.207-1.89 5.082-4.617 5.67zm-8.117-15.678c0-1.394-.79-2.277-2.975-2.277h-1.843v4.57h1.843c2.185 0 2.975-.899 2.975-2.293zM29.296 165.551H12.499v7.874h14.96v10.76h-14.96v7.776h16.797v10.957H0v-48.226h29.296v10.86zm65.746 37.367H82.543l-3.15-33.987-10.202 33.987h-8.267L50.72 168.766l-3.183 34.152H34.973l4.233-48.226h18.273l7.546 24.638 7.643-24.638h18.208zm28.871.656c-14.566 0-25.03-9.875-25.03-24.769 0-14.992 10.465-24.802 25.03-24.802 14.6 0 25.065 9.809 25.065 24.802 0 14.895-10.466 24.77-25.065 24.77zm0-11.35c7.283 0 12.729-5.152 12.729-13.419s-5.446-13.45-12.729-13.45c-7.25 0-12.63 5.183-12.63 13.45s5.38 13.418 12.63 13.418zm40.027 11.35c-3.97 0-8.989-.984-14.172-3.609l5.249-10.202c2.493 1.738 4.56 2.69 7.25 2.69 3.084 0 4.364-1.51 4.364-6.726v-31.035h12.499v33.43c0 10.366-6.233 15.451-15.19 15.451zm23.558-.656v-48.226h12.5v48.226h-12.5z"/><path d="M11.27 20l-1.025-2.91H4.317L3.292 20H.293L5.489 5.889h3.584L14.268 20H11.27zm-6.094-5.361h4.209l-2.1-5.987zm16.41 2.773h4.425V20h-7.354V5.889h2.93v11.523zm11.86 0h4.425V20h-7.354V5.889h2.93v11.523zM49.844 20V5.889h2.93V20h-2.93zM68.325 5.889h2.92V20h-3.389l-6.25-10.088V20h-2.92V5.889h3.35l6.289 10.029V5.889zm22.412 14.306c-4.073 0-7.07-2.813-7.07-7.217 0-4.463 3.066-7.285 7.216-7.285 2.725 0 4.98 1.201 6.211 3.32l-2.568 1.368c-.742-1.446-2.07-2.14-3.643-2.14-2.441 0-4.277 1.68-4.277 4.669 0 2.88 1.719 4.736 4.385 4.736 1.806 0 3.466-.898 3.867-2.959H91v-2.353h6.631V20h-2.304v-1.953c-.909 1.337-2.432 2.148-4.59 2.148zm18.452 0c-4.15 0-7.217-2.832-7.217-7.256 0-4.434 3.066-7.246 7.217-7.246 4.14 0 7.207 2.813 7.207 7.246 0 4.424-3.067 7.256-7.207 7.256zm0-2.686c2.431 0 4.297-1.709 4.297-4.57 0-2.851-1.866-4.55-4.297-4.55s-4.297 1.699-4.297 4.55c0 2.861 1.865 4.57 4.297 4.57zm18.423 2.686c-4.15 0-7.217-2.832-7.217-7.256 0-4.434 3.066-7.246 7.217-7.246 4.14 0 7.207 2.813 7.207 7.246 0 4.424-3.067 7.256-7.207 7.256zm0-2.686c2.431 0 4.297-1.709 4.297-4.57 0-2.851-1.866-4.55-4.297-4.55s-4.297 1.699-4.297 4.55c0 2.861 1.865 4.57 4.297 4.57zM139.785 20V5.89h5.107c4.502 0 6.729 2.832 6.729 7.05 0 4.229-2.227 7.061-6.729 7.061h-5.107zm2.93-2.587h2.03c2.598 0 3.79-1.621 3.79-4.473s-1.192-4.473-3.79-4.473h-2.03v8.946zm29.706-8.945h-5.37v3.203h4.638v2.549h-4.639v5.78h-2.949V5.89h8.32v2.578zm9.996 11.728c-3.096 0-5.518-1.582-5.518-5.137v-9.17h2.93v8.77c0 2.148 1.143 2.949 2.588 2.949 1.455 0 2.607-.81 2.607-2.95V5.889h2.93v9.17c0 3.555-2.431 5.137-5.537 5.137zm20.806-14.306h2.92v14.11h-3.389l-6.25-10.087V20h-2.92V5.889h3.35l6.29 10.029V5.888zm10.23 14.306c-.87 0-1.603-.723-1.603-1.602s.733-1.621 1.602-1.621c.889 0 1.621.742 1.621 1.621s-.732 1.602-1.62 1.602zm8.715 0c-.87 0-1.602-.723-1.602-1.602s.733-1.621 1.602-1.621c.889 0 1.621.742 1.621 1.621s-.732 1.602-1.621 1.602zm8.716 0c-.87 0-1.602-.723-1.602-1.602s.733-1.621 1.602-1.621c.888 0 1.62.742 1.62 1.621s-.732 1.602-1.62 1.602z" transform="translate(-.253 219.1) scale(.86128)" fill="url(#a)"/></svg>